<?xml version="1.0" standalone="no"?>
<!DOCTYPE svg PUBLIC "-//W3C//DTD SVG 20010904//EN"
 "http://www.w3.org/TR/2001/REC-SVG-20010904/DTD/svg10.dtd">
<svg version="1.0" xmlns="http://www.w3.org/2000/svg"
 width="700.000000pt" height="700.000000pt" viewBox="0 0 700.000000 700.000000"
 preserveAspectRatio="xMidYMid meet">
<metadata>
Created by potrace 1.11, written by Peter Selinger 2001-2013
</metadata>
<g transform="translate(0.000000,700.000000) scale(0.100000,-0.100000)"
fill="#000000" stroke="none">
<path d="M1077 6293 c-1 -1 -36 -3 -77 -4 -91 -3 -188 -22 -238 -48 -76 -39
-159 -144 -183 -234 -15 -55 -14 -156 1 -204 48 -147 152 -230 340 -270 97
-20 265 -22 855 -8 443 10 946 12 1095 3 347 -20 627 -143 860 -378 47 -47 98
-106 115 -130 16 -25 32 -47 35 -50 22 -22 102 -182 133 -265 23 -63 29 -86
43 -150 30 -135 28 -387 -2 -487 -3 -10 -7 -30 -10 -45 -9 -55 -67 -210 -111
-298 -164 -329 -431 -524 -828 -604 -187 -38 -322 -45 -795 -42 -1093 7 -1319
5 -1457 -14 -99 -14 -213 -110 -255 -216 -90 -223 20 -453 247 -518 95 -27
400 -31 1515 -18 474 6 598 10 695 22 22 3 58 7 80 10 110 13 136 17 215 35
340 80 599 225 873 489 104 101 238 258 299 351 71 109 178 358 253 588 l18
54 36 -7 c54 -9 148 -44 221 -80 121 -61 201 -125 336 -269 29 -30 109 -157
143 -225 97 -192 142 -401 136 -626 -9 -352 -147 -656 -398 -882 -141 -127
-405 -249 -579 -267 -18 -2 -62 -7 -98 -11 -278 -28 -957 -36 -1895 -20 -625
11 -1583 12 -1709 3 -112 -9 -162 -20 -226 -53 -85 -43 -146 -119 -175 -219
-44 -151 3 -316 119 -411 65 -53 134 -76 256 -85 107 -7 3581 -4 3635 4 17 2
59 7 95 10 189 19 426 87 620 179 395 186 719 502 913 893 108 216 169 416
204 669 12 84 10 379 -3 480 -47 360 -198 714 -432 1009 -61 78 -204 223 -267
273 -66 52 -135 103 -139 103 -3 0 -33 19 -68 42 -109 73 -307 164 -490 226
-97 34 -185 65 -195 70 -36 20 -51 48 -58 107 -18 174 -108 378 -283 644 -226
342 -516 576 -881 711 -141 52 -387 111 -518 126 -32 3 -60 7 -63 9 -3 2 -46
6 -95 10 -50 4 -106 10 -125 12 -31 5 -1729 11 -1733 6z"/>
<path d="M1317 4694 c-1 -1 -87 -4 -192 -8 -236 -7 -254 -10 -340 -51 -223
-105 -288 -344 -150 -552 66 -100 176 -149 354 -159 157 -9 1813 -10 1906 -2
138 13 201 42 278 128 158 176 107 485 -96 584 -102 50 -81 49 -1385 59 -205
2 -374 2 -375 1z"/>
</g>
</svg>
