<?xml version="1.0" encoding="UTF-8"?>
<!DOCTYPE svg PUBLIC "-//W3C//DTD SVG 1.1//EN" "http://www.w3.org/Graphics/SVG/1.1/DTD/svg11.dtd">
<!-- Creator: CorelDRAW 2018 (64-Bit) -->
<svg xmlns="http://www.w3.org/2000/svg" xml:space="preserve" width="7.87402in" height="2.18594in" version="1.1" style="shape-rendering:geometricPrecision; text-rendering:geometricPrecision; image-rendering:optimizeQuality; fill-rule:evenodd; clip-rule:evenodd"
viewBox="0 0 123513.97 34289.33"
 xmlns:xlink="http://www.w3.org/1999/xlink">
 <defs>
  <style type="text/css">
   <![CDATA[
    .fil0 {fill:none}
    .fil1 {fill:#F8C92E}
    .fil2 {fill:black;fill-rule:nonzero}
   ]]>
  </style>
 </defs>
 <g id="Layer_x0020_1">
  <metadata id="CorelCorpID_0Corel-Layer"/>
  <g id="_2814961402928">
   <rect class="fil0" x="0" y="-0.03" width="123513.97" height="34289.39"/>
   <path class="fil1" d="M23980.67 15640.94c4397.1,923.02 5103.41,8006.48 188.98,9602.35 -2073.61,673.4 -14791.48,-74.17 -16461.39,316.75 -1621.99,379.68 -1540.96,2796.91 114.81,3067.72 809.39,132.41 9405.65,27.67 11026.59,27.67 1629.03,0 3899.21,144.76 5411.27,-174.46 6149.58,-1298.32 8705.08,-8796.67 4251.84,-13679.91 -748.93,-821.24 -2039.65,-1691.83 -3442.21,-2142.29 -2192.62,-704.28 -175.82,-50.39 -2271.73,-3327.59 -2835.63,-4433.84 -7623.59,-3689.61 -12915.67,-3689.67 -738.8,0 -2001.36,-102.08 -2546.92,195.71 -535.37,292.17 -1000.34,1031.4 -727.87,1872.16 492.82,1520.4 2841.5,1082.97 4555.69,1082.97 1534.85,0 4106.72,-147.29 5498.47,47.8 2791.91,391.35 5252.31,3308.26 4063.18,6673.21 -1342.91,3800.09 -4959.64,3370.63 -7698.44,3370.63 -981.38,0 -4856.57,-117.71 -5483.03,97.45 -1441.9,495.23 -1406.82,2874.05 475.03,3044.8 1597.9,144.94 3914.53,9.94 5590.18,9.94 3538.98,0 5853.27,82.32 8453.05,-2739.85 1109.65,-1204.57 1295.17,-1940.28 1918.17,-3655.4zm-16276.3 -3301.53c-819.45,251.04 -1534.78,1083.77 -1027.33,2172.18 470.46,1009.05 1484.21,898.63 2740.28,897.76 1235.94,-0.8 6371.84,154.39 7175.79,-71.45 816.37,-229.3 1395.58,-1243.85 918.39,-2229.98 -470.59,-972.49 -1416.77,-851.2 -2737.56,-850.39 -1195.31,0.74 -6360.91,-135.31 -7069.57,81.89z"/>
   <path class="fil2" d="M40513.76 23866.05l0 -10987.25 2376.22 0 0 10980.02c0,1318.88 -465.09,2448.85 -1391.57,3382.62 -926.54,933.77 -2049.22,1398.86 -3364.52,1398.86 -1318.88,0 -2441.62,-465.09 -3375.39,-1398.86 -930.12,-933.77 -1395.15,-2063.73 -1395.15,-3382.62l0 -10980.02 2376.16 0 0 10987.25c0,661.29 232.58,1224.46 701.25,1693.19 468.74,468.67 1031.84,704.83 1693.13,704.83 657.65,0 1220.81,-236.16 1682.26,-704.83 465.03,-468.74 697.61,-1031.9 697.61,-1693.19zm4952.29 -10900.05l7263.05 0 0 2376.22 -4865.09 0 0 4272.78 4865.09 0 0 2376.29 -4865.09 0 0 6649 -2397.96 0 0 -15674.29zm9813.68 0l7263.05 0 0 2376.22 -4865.09 0 0 4272.78 4865.09 0 0 2376.29 -4865.09 0 0 6649 -2397.96 0 0 -15674.29zm9813.68 0l7263.05 0 0 2376.22 -4865.03 0 0 4272.78 4865.03 0 0 2376.29 -4865.03 0 0 4272.78 4865.03 0 0 2376.22 -7263.05 0 0 -15674.29zm9799.17 -87.2l10209.66 0 0 2463.42 -3916.75 0 0 13298.07 -2376.16 0 0 -13298.07 -3916.75 0 0 -2463.42zm15209.2 -65.4l4276.42 15881.36 -2434.34 0 -672.16 -2514.25 -3789.59 0 -672.16 2514.25 -2434.34 0 4276.42 -15881.36 1449.75 0zm-1936.58 10845.58l2427.05 0 -1206.3 -5079.45 -1220.75 5079.45zm11154.36 606.76l0 4352.76 -2376.22 0 0 -15674.29 2376.22 0 0 21.8c141.67,-14.51 283.4,-21.8 425.07,-21.8 1482.41,0 2746.83,552.29 3789.59,1660.46 1042.77,1108.17 1562.33,2441.62 1562.33,4003.95 0,1569.62 -519.56,2906.65 -1562.33,4014.82 -261.6,276.18 -534.07,519.56 -817.48,723.05l2837.61 5315.61 -2550.56 0 -2365.35 -4450.89c-290.69,50.89 -588.61,76.33 -893.81,76.33 -141.67,0 -283.4,-7.29 -425.07,-21.8zm0 -8963.47l0 6619.98c134.38,21.8 276.12,32.67 425.07,32.67 872.01,0 1616.86,-327 2230.91,-977.37 614.05,-654.01 919.25,-1442.46 919.25,-2365.35 0,-922.83 -305.2,-1707.64 -919.25,-2358.01 -614.05,-646.72 -1358.9,-973.72 -2230.91,-973.72 -141.67,0 -283.4,7.23 -425.07,21.8zm6743.49 -2401.67l2521.54 0 2957.54 6979.65 2943.03 -6979.65 2521.54 0 -4109.31 9781.01 0 5958.68 -2725.03 0 0 -5958.68 -4109.31 -9781.01z"/>
  </g>
 </g>
</svg>
