<?xml version="1.0" encoding="UTF-8"?>
<!DOCTYPE svg PUBLIC "-//W3C//DTD SVG 1.1//EN" "http://www.w3.org/Graphics/SVG/1.1/DTD/svg11.dtd">
<!-- Creator: CorelDRAW 2018 (64-Bit) -->
<svg xmlns="http://www.w3.org/2000/svg" xml:space="preserve" width="7.874in" height="2.18594in" version="1.1" style="shape-rendering:geometricPrecision; text-rendering:geometricPrecision; image-rendering:optimizeQuality; fill-rule:evenodd; clip-rule:evenodd"
viewBox="0 0 7392.98 2052.41"
 xmlns:xlink="http://www.w3.org/1999/xlink">
 <defs>
  <style type="text/css">
   <![CDATA[
    .fil0 {fill:none}
    .fil1 {fill:#F8C92E}
    .fil2 {fill:white;fill-rule:nonzero}
   ]]>
  </style>
 </defs>
 <g id="Layer_x0020_1">
  <metadata id="CorelCorpID_0Corel-Layer"/>
  <g id="_2842496363808">
   <rect class="fil0" width="7392.98" height="2052.41"/>
   <path class="fil1" d="M1435.37 936.2c263.19,55.25 305.47,479.23 11.31,574.75 -124.12,40.31 -885.35,-4.44 -985.3,18.96 -97.08,22.73 -92.24,167.41 6.87,183.62 48.45,7.93 562.98,1.66 660,1.66 97.51,0 233.39,8.66 323.89,-10.44 368.09,-77.71 521.05,-526.53 254.5,-818.82 -44.83,-49.16 -122.08,-101.27 -206.04,-128.23 -131.24,-42.15 -10.52,-3.02 -135.98,-199.17 -169.73,-265.39 -456.31,-220.84 -773.07,-220.85 -44.22,0 -119.79,-6.11 -152.45,11.71 -32.04,17.49 -59.88,61.74 -43.57,112.06 29.5,91 170.08,64.82 272.68,64.82 91.87,0 245.81,-8.82 329.11,2.86 167.11,23.42 314.38,198.02 243.2,399.43 -80.38,227.46 -296.86,201.75 -460.79,201.75 -58.74,0 -290.69,-7.05 -328.19,5.83 -86.31,29.64 -84.21,172.03 28.43,182.25 95.64,8.68 234.31,0.6 334.6,0.6 211.83,0 350.35,4.93 505.96,-164 66.42,-72.1 77.52,-116.14 114.81,-218.8l-0 -0zm-974.22 -197.61c-49.05,15.03 -91.87,64.87 -61.49,130.02 28.16,60.4 88.84,53.79 164.02,53.74 73.98,-0.05 381.39,9.24 429.51,-4.28 48.86,-13.73 83.53,-74.45 54.97,-133.48 -28.17,-58.21 -84.8,-50.95 -163.86,-50.9 -71.55,0.04 -380.74,-8.1 -423.15,4.9z"/>
   <path class="fil2" d="M2424.97 1428.52l0 -657.65 142.23 0 0 657.22c0,78.94 -27.84,146.58 -83.29,202.47 -55.46,55.89 -122.66,83.73 -201.39,83.73 -78.94,0 -146.14,-27.84 -202.04,-83.73 -55.67,-55.89 -83.51,-123.53 -83.51,-202.47l0 -657.22 142.23 0 0 657.65c0,39.58 13.92,73.29 41.97,101.35 28.06,28.05 61.76,42.19 101.34,42.19 39.36,0 73.07,-14.14 100.69,-42.19 27.83,-28.06 41.76,-61.76 41.76,-101.35zm296.42 -652.43l434.73 0 0 142.23 -291.2 0 0 255.75 291.2 0 0 142.23 -291.2 0 0 397.98 -143.53 0 0 -938.19 0 -0zm587.4 0l434.73 0 0 142.23 -291.2 0 0 255.75 291.2 0 0 142.23 -291.2 0 0 397.98 -143.53 0 0 -938.19 0 -0zm587.4 0l434.73 0 0 142.23 -291.2 0 0 255.75 291.2 0 0 142.23 -291.2 0 0 255.75 291.2 0 0 142.23 -434.73 0 0 -938.19 0 -0zm586.53 -5.22l611.11 0 0 147.45 -234.44 0 0 795.96 -142.23 0 0 -795.96 -234.44 0 0 -147.45zm910.35 -3.91l255.97 950.58 -145.71 0 -40.23 -150.49 -226.83 0 -40.23 150.49 -145.71 0 255.97 -950.58 86.78 0zm-115.91 649.17l145.27 0 -72.2 -304.03 -73.07 304.03zm667.65 36.32l0 260.54 -142.23 0 0 -938.19 142.23 0 0 1.3c8.48,-0.87 16.96,-1.3 25.44,-1.3 88.73,0 164.41,33.06 226.83,99.39 62.42,66.33 93.51,146.14 93.51,239.66 0,93.95 -31.1,173.98 -93.51,240.31 -15.66,16.53 -31.97,31.1 -48.93,43.28l169.85 318.17 -152.67 0 -141.58 -266.41c-17.4,3.05 -35.23,4.57 -53.5,4.57 -8.48,0 -16.96,-0.44 -25.44,-1.3l0 -0zm0 -536.51l0 396.24c8.04,1.3 16.53,1.96 25.44,1.96 52.19,0 96.78,-19.57 133.53,-58.5 36.75,-39.15 55.02,-86.34 55.02,-141.58 0,-55.24 -18.27,-102.21 -55.02,-141.14 -36.75,-38.71 -81.34,-58.28 -133.53,-58.28 -8.48,0 -16.96,0.43 -25.44,1.3zm403.63 -143.75l150.93 0 177.03 417.77 176.16 -417.77 150.93 0 -245.97 585.45 0 356.66 -163.11 0 0 -356.66 -245.97 -585.45z"/>
  </g>
 </g>
</svg>
