<?xml version="1.0" encoding="UTF-8"?>
<!DOCTYPE svg PUBLIC "-//W3C//DTD SVG 1.1//EN" "http://www.w3.org/Graphics/SVG/1.1/DTD/svg11.dtd">
<!-- Creator: CorelDRAW 2018 (64-Bit) -->
<svg xmlns="http://www.w3.org/2000/svg" xml:space="preserve" width="6.69291in" height="4.72441in" version="1.1" style="shape-rendering:geometricPrecision; text-rendering:geometricPrecision; image-rendering:optimizeQuality; fill-rule:evenodd; clip-rule:evenodd"
viewBox="0 0 1805.37 1274.38"
 xmlns:xlink="http://www.w3.org/1999/xlink">
 <defs>
  <style type="text/css">
   <![CDATA[
    .fil1 {fill:none}
    .fil0 {fill:#F8C92E}
   ]]>
  </style>
 </defs>
 <g id="Layer_x0020_1">
  <metadata id="CorelCorpID_0Corel-Layer"/>
  <g id="_2537366861104">
   <path class="fil0" d="M1449.02 258.99c-7.7,-8.2 -20.58,-8.61 -28.78,-0.91 -8.2,7.7 -8.6,20.58 -0.91,28.78 88.73,94.5 137.59,217.98 137.59,347.67 0,280.15 -227.91,508.06 -508.06,508.06 -280.15,0 -508.06,-227.91 -508.06,-508.06 0,-280.14 227.92,-508.06 508.06,-508.06 108.86,0 212.64,33.92 300.13,98.08 9.07,6.65 21.81,4.69 28.46,-4.38 6.65,-9.07 4.69,-21.81 -4.38,-28.46 -94.53,-69.32 -206.64,-105.97 -324.21,-105.97 -257.35,0 -473.85,178.08 -532.86,417.46l-256.77 -0c-47.44,0 -69.62,58.95 -33.76,90.18 71.54,60.85 85.76,78.54 122.57,100.34l-88.81 0c-47.44,0 -69.63,58.94 -33.76,90.18 72.01,61.25 85.92,78.64 122.57,100.34l-88.81 0c-47.44,0 -69.63,58.94 -33.76,90.18l79.59 69.31c29.09,25.33 62.39,44.39 98.96,56.64 10.69,3.57 22.2,-2.19 25.77,-12.84 3.57,-10.66 -2.18,-22.2 -12.84,-25.77 -31.48,-10.54 -60.12,-26.93 -85.15,-48.73l-79.6 -69.31c-7.48,-6.52 -2.9,-18.75 7.02,-18.75l324.22 0c36.39,58.1 83.32,108.94 138.13,149.8l-215.34 0c-11.25,0 -20.36,9.11 -20.36,20.36 0,11.25 9.11,20.36 20.36,20.36l278.59 0c78.38,43.2 168.38,67.82 264.03,67.82 302.6,0 548.78,-246.18 548.78,-548.78 0,-140.1 -52.78,-273.47 -148.62,-375.55l0 0zm-107.46 382.47c28.5,70.07 39.71,127.67 -1.08,128.21 -33.88,0.45 -39.53,-44.52 1.08,-128.21zm-227.11 131.72c-38.64,6.43 -39.53,-23.9 -66.09,-23.83 -26.54,0.03 -19.69,23.81 -64.31,24.15 -22.83,-8.93 -34.45,-25.45 -34.54,-49.1 -0.19,-46.71 44.31,-84.81 99.21,-84.95 54.5,0 99.7,37.09 99.89,84.46 0.1,23.65 -11.39,40.23 -34.14,49.27l0 0zm-65.45 -102.08c-0.06,0 -0.11,0 -0.16,0 -32.44,0.08 -58.73,23.94 -58.61,53.2 0.06,16.21 7.91,14.65 12.13,16.3 12.76,-2.06 21.42,-23.78 49.58,-20.59 19.78,4.12 25.48,10.95 42.14,19.44 4.2,-1.67 13.87,0.78 13.81,-15.43 -0.11,-28.1 -25.37,-52.91 -58.88,-52.91l0 0zm-717.19 -39.1l-79.59 -69.31c-7.49,-6.52 -2.9,-18.75 7.02,-18.75l248.37 0c-8,47.95 -9.9,97.97 -4.32,149.8 -3.68,-0.64 -92.14,7.36 -171.48,-61.74l0 0zm164.9 252.25c-60.62,0 -119.18,-21.92 -164.89,-61.73l-79.59 -69.31c-7.49,-6.52 -2.9,-18.75 7.02,-18.75l249.99 0c9.78,52.97 27.17,103.3 51.04,149.8l-63.56 0 0 -0zm552.16 -655.39c-223.69,0 -405.67,181.98 -405.67,405.67 0,223.69 181.98,405.67 405.67,405.67 223.69,0 405.67,-181.98 405.67,-405.67 0,-223.69 -181.98,-405.67 -405.67,-405.67zm0 770.63c-201.24,0 -364.95,-163.72 -364.95,-364.95 0,-201.24 163.72,-364.95 364.95,-364.95 201.24,0 364.95,163.72 364.95,364.95 0,201.24 -163.72,364.95 -364.95,364.95zm209.2 -462.66c-37,0 -66.99,29.88 -67.1,66.9 -0.04,11.25 9.05,20.39 20.3,20.42l0.06 0c11.22,0 20.32,-9.07 20.36,-20.3 0.04,-14.55 11.83,-26.3 26.39,-26.3 14.6,0 26.44,11.84 26.39,26.47 -0.04,11.24 9.05,20.39 20.3,20.42l0.06 0c11.21,0 20.32,-9.07 20.36,-20.3 0.11,-37.14 -29.9,-67.32 -67.12,-67.32zm-417.67 -1.31c-37.06,-0.16 -67.2,29.79 -67.32,66.9 -0.04,11.24 9.05,20.39 20.3,20.42l0.07 0c11.21,0 20.32,-9.08 20.36,-20.3 0.05,-14.52 11.87,-26.31 26.39,-26.31 14.6,0 26.44,11.84 26.39,26.47 -0.04,11.24 9.05,20.39 20.3,20.42l0.07 -0c11.21,0 20.32,-9.07 20.36,-20.3 0.11,-37.09 -29.81,-67.2 -66.9,-67.31z"/>
   <rect class="fil1" x="0" y="-0" width="1805.37" height="1274.38"/>
  </g>
 </g>
</svg>
