<?xml version="1.0" encoding="UTF-8"?>
<!DOCTYPE svg PUBLIC "-//W3C//DTD SVG 1.1//EN" "http://www.w3.org/Graphics/SVG/1.1/DTD/svg11.dtd">
<!-- Creator: CorelDRAW 2018 (64-Bit) -->
<svg xmlns="http://www.w3.org/2000/svg" xml:space="preserve" width="5.90551in" height="5.90551in" version="1.1" style="shape-rendering:geometricPrecision; text-rendering:geometricPrecision; image-rendering:optimizeQuality; fill-rule:evenodd; clip-rule:evenodd"
viewBox="0 0 969.83 969.83"
 xmlns:xlink="http://www.w3.org/1999/xlink">
 <defs>
  <style type="text/css">
   <![CDATA[
    .fil1 {fill:none}
    .fil0 {fill:#F8C92E}
   ]]>
  </style>
 </defs>
 <g id="Layer_x0020_1">
  <metadata id="CorelCorpID_0Corel-Layer"/>
  <g id="_2537361533120">
   <path class="fil0" d="M736.2 96.22c-75.35,0 -136.65,61.3 -136.65,136.65 0,67.82 35.26,113.93 66.37,154.62 19.8,25.9 37.5,49.05 44.41,74.65l-24.24 -0 0 45.55 72.88 0 0 -22.78c0,-35.3 22.01,-64.09 47.5,-97.42 31.11,-40.69 66.37,-86.8 66.37,-154.62 0,-75.35 -61.3,-136.65 -136.65,-136.65l0 0zm34.09 263.6c-11.97,15.65 -24.12,31.54 -34.09,48.56 -9.97,-17.03 -22.12,-32.91 -34.09,-48.56 -29.32,-38.34 -57.01,-74.55 -57.01,-126.95 0,-50.23 40.87,-91.1 91.1,-91.1 50.23,0 91.1,40.87 91.1,91.1 0,52.4 -27.69,88.61 -57.01,126.95z"/>
   <polygon class="fil0" points="713.42,210.1 758.97,210.1 758.97,255.65 713.42,255.65 "/>
   <polygon class="fil0" points="572.22,598.79 661.8,598.79 661.8,644.34 572.22,644.34 "/>
   <polygon class="fil0" points="549.48,462.14 640.54,462.14 640.54,507.69 549.48,507.69 "/>
   <path class="fil0" d="M660.28 780.99l30.37 0c27.44,0 53.16,-12.2 70.55,-33.46l-35.26 -28.84c-8.7,10.64 -21.56,16.74 -35.29,16.74l-30.37 0 0 45.55z"/>
   <polygon class="fil0" points="523.63,735.44 614.55,735.44 614.55,780.99 523.63,780.99 "/>
   <path class="fil0" d="M468.33 574.84l-40.07 21.65c15.95,29.51 46.67,47.84 80.19,47.84l18.22 0 0 -45.55 -18.22 0c-16.76,0 -32.13,-9.18 -40.12,-23.95l0 -0z"/>
   <path class="fil0" d="M418.67 537.68l44.89 7.74c3.58,-20.78 20.79,-36.26 41.85,-37.63l-2.97 -45.45c-42.15,2.75 -76.6,33.74 -83.77,75.35l0 0z"/>
   <path class="fil0" d="M713.75 601.75l-11.53 44.07c20,5.23 33.97,23.36 33.97,44.15 0,0.26 -0,0.52 -0.01,0.79l45.54 0.8c0.01,-0.58 0.01,-1.16 0.01,-1.67 0,-41.42 -27.96,-77.67 -68,-88.14l0 0z"/>
   <path class="fil0" d="M508.45 873.6l0 -45.55 -45.55 0 0 -24.29c0,-80.17 -59.49,-146.7 -136.65,-157.79l0 -47.18 -45.55 0 0 47.15c-78,10.99 -138.17,77.57 -138.17,157.82l0 24.29 -45.55 -0 0 45.55 411.47 0zm-320.37 -69.84c0,-62.79 51.77,-113.87 115.39,-113.87 62.79,0 113.87,51.08 113.87,113.87l0 24.29 -229.27 0 0 -24.29z"/>
  </g>
  <rect class="fil1" x="-0" y="-0" width="969.83" height="969.83"/>
 </g>
</svg>
