<?xml version="1.0" encoding="UTF-8"?>
<!DOCTYPE svg PUBLIC "-//W3C//DTD SVG 1.1//EN" "http://www.w3.org/Graphics/SVG/1.1/DTD/svg11.dtd">
<!-- Creator: CorelDRAW 2018 (64-Bit) -->
<svg xmlns="http://www.w3.org/2000/svg" xml:space="preserve" width="7.87402in" height="5.90551in" version="1.1" style="shape-rendering:geometricPrecision; text-rendering:geometricPrecision; image-rendering:optimizeQuality; fill-rule:evenodd; clip-rule:evenodd"
viewBox="0 0 7912.03 5934.02"
 xmlns:xlink="http://www.w3.org/1999/xlink">
 <defs>
  <style type="text/css">
   <![CDATA[
    .fil1 {fill:#D0D0D0}
    .fil0 {fill:#E5E5E5}
   ]]>
  </style>
 </defs>
 <g id="Layer_x0020_1">
  <metadata id="CorelCorpID_0Corel-Layer"/>
  <g id="_2771722229856">
   <rect class="fil0" width="7912.03" height="5934.02"/>
   <path class="fil1" d="M4479.34 2819.85c430.34,90.35 499.48,783.61 18.5,939.81 -202.95,65.9 -1447.65,-7.26 -1611.09,30.99 -158.73,37.17 -150.82,273.74 11.24,300.23 79.2,12.96 920.53,2.71 1079.19,2.71 159.44,0 381.63,14.18 529.62,-17.07 601.86,-127.07 851.98,-860.93 416.14,-1338.87 -73.3,-80.38 -199.62,-165.58 -336.89,-209.68 -214.59,-68.93 -17.21,-4.94 -222.33,-325.67 -277.53,-433.96 -746.13,-361.1 -1264.07,-361.1 -72.32,0 -195.87,-9.99 -249.27,19.16 -52.4,28.59 -97.89,100.95 -71.23,183.23 48.24,148.82 278.09,105.98 445.88,105.98 150.22,0 401.94,-14.41 538.15,4.67 273.25,38.3 514.05,323.77 397.66,653.11 -131.44,371.92 -485.42,329.88 -753.45,329.88 -96.05,0 -475.31,-11.52 -536.62,9.54 -141.13,48.47 -137.7,281.29 46.5,298 156.38,14.21 383.1,0.97 547.11,0.97 346.36,0 572.87,8.06 827.32,-268.15 108.61,-117.9 126.76,-189.91 187.74,-357.77l-0.09 0.03 0 0zm-1592.96 -323.13c-80.22,24.57 -150.23,106.07 -100.55,212.59 46.05,98.76 145.26,87.95 268.19,87.85 120.96,-0.07 623.61,15.12 702.3,-7.01 79.88,-22.45 136.59,-121.73 89.88,-218.26 -46.06,-95.19 -138.66,-83.32 -267.93,-83.22 -116.98,0.07 -622.55,-13.24 -691.9,8.01l0.02 0.02 0 0z"/>
  </g>
 </g>
</svg>
